<svg width="800" height="400" viewBox="0 0 800 400" xmlns="http://www.w3.org/2000/svg">
  <!-- Background gradient -->
  <defs>
    <linearGradient id="grad" x1="0%" y1="0%" x2="100%" y2="100%">
      <stop offset="0%" style="stop-color:#60A5FA;stop-opacity:0.1" />
      <stop offset="100%" style="stop-color:#34D399;stop-opacity:0.1" />
    </linearGradient>
    <!-- Cloud shape -->
    <path id="cloud" d="M-25,-10 Q-15,-10 -10,-15 Q0,-25 10,-15 Q15,-10 25,-10 Q35,-10 40,-5 Q45,0 45,10 Q45,20 35,25 L-35,25 Q-45,20 -45,10 Q-45,0 -40,-5 Q-35,-10 -25,-10" />
  </defs>
  
  <!-- Background -->
  <rect width="100%" height="100%" fill="url(#grad)" />
  
  <!-- Weather icons -->
  <g transform="translate(400,180)">
    <!-- Sun -->
    <circle r="30" fill="#FBBF24" opacity="0.9">
      <animate attributeName="opacity" values="0.7;0.9;0.7" dur="3s" repeatCount="indefinite" />
    </circle>
    <!-- Cloud -->
    <g transform="translate(0,20)" fill="#E5E7EB" opacity="0.9">
      <use href="#cloud" />
    </g>
    <!-- Rain drops -->
    <g transform="translate(-20,50)" fill="#60A5FA">
      <circle r="2" opacity="0.6">
        <animate attributeName="transform" values="translate(0,0); translate(0,20)" dur="1s" repeatCount="indefinite" />
        <animate attributeName="opacity" values="0.6;0;0.6" dur="1s" repeatCount="indefinite" />
      </circle>
      <circle r="2" transform="translate(20,0)" opacity="0.6">
        <animate attributeName="transform" values="translate(20,0); translate(20,20)" dur="1s" begin="0.3s" repeatCount="indefinite" />
        <animate attributeName="opacity" values="0.6;0;0.6" dur="1s" begin="0.3s" repeatCount="indefinite" />
      </circle>
      <circle r="2" transform="translate(40,0)" opacity="0.6">
        <animate attributeName="transform" values="translate(40,0); translate(40,20)" dur="1s" begin="0.6s" repeatCount="indefinite" />
        <animate attributeName="opacity" values="0.6;0;0.6" dur="1s" begin="0.6s" repeatCount="indefinite" />
      </circle>
    </g>
  </g>
  
  <!-- Text -->
  <g transform="translate(400,300)" text-anchor="middle">
    <text y="-20" fill="#3B82F6" font-size="48" font-family="system-ui, -apple-system, sans-serif" font-weight="bold">
      Weather Visualizer
    </text>
    <text y="20" fill="#6B7280" font-size="24" font-family="system-ui, -apple-system, sans-serif">
      Real-time Data
    </text>
  </g>
</svg> 