<svg width="800" height="400" viewBox="0 0 800 400" xmlns="http://www.w3.org/2000/svg">
  <!-- Background gradient -->
  <defs>
    <linearGradient id="grad" x1="0%" y1="0%" x2="100%" y2="100%">
      <stop offset="0%" style="stop-color:#8B5CF6;stop-opacity:0.1" />
      <stop offset="100%" style="stop-color:#EC4899;stop-opacity:0.1" />
    </linearGradient>
  </defs>
  
  <!-- Background -->
  <rect width="100%" height="100%" fill="url(#grad)" />
  
  <!-- 3D Grid -->
  <g transform="translate(400,200)">
    <!-- Back face -->
    <path d="M-60,-60 L60,-60 L60,60 L-60,60 Z" fill="none" stroke="#8B5CF6" stroke-width="2" opacity="0.3" />
    <!-- Front face -->
    <path d="M-40,-40 L80,-40 L80,80 L-40,80 Z" fill="none" stroke="#8B5CF6" stroke-width="2" opacity="0.6" />
    <!-- Connecting lines -->
    <path d="M-60,-60 L-40,-40 M60,-60 L80,-40 M60,60 L80,80 M-60,60 L-40,80" stroke="#8B5CF6" stroke-width="2" opacity="0.4" />
    
    <!-- Snake segments -->
    <g fill="#10B981">
      <rect x="0" y="0" width="20" height="20" rx="4">
        <animate attributeName="opacity" values="0.8;1;0.8" dur="2s" repeatCount="indefinite" />
      </rect>
      <rect x="20" y="0" width="20" height="20" rx="4" opacity="0.9" />
      <rect x="40" y="0" width="20" height="20" rx="4" opacity="0.8" />
      <rect x="40" y="20" width="20" height="20" rx="4" opacity="0.7" />
    </g>
    
    <!-- Food -->
    <circle cx="-20" cy="-20" r="8" fill="#EC4899">
      <animate attributeName="r" values="6;8;6" dur="1s" repeatCount="indefinite" />
    </circle>
  </g>
  
  <!-- Text -->
  <g transform="translate(400,320)" text-anchor="middle">
    <text y="-20" fill="#8B5CF6" font-size="48" font-family="system-ui, -apple-system, sans-serif" font-weight="bold">
      3D Snake
    </text>
    <text y="20" fill="#6B7280" font-size="24" font-family="system-ui, -apple-system, sans-serif">
      WebGL Game
    </text>
  </g>
</svg> 